PathFileType	4	(X/Y/Z)	C:/Users/opensim2020/Desktop/walking_exp_matlab/subject06_walking16_straight_03.trc	
DataRate	CameraRate	NumFrames	NumMarkers	Units	OrigDataRate	OrigDataStartFrame	OrigNumFrames	
100.00	100.00	4	51	mm	100.00	2964	283	
Frame#	Time	LFHD			RFHD			LBHD			RBHD			C7			T10			CLAV			STRN			RBAK			LSHO			LUPA			LELB			LFRM			LWRA			LWRB			LFIN			RSHO			RUPA			RELB			RFRM			RWRA			RWRB			RFIN			LASI			RASI			LPSI			RPSI			LTHI			LKNE			LTIB			LANK			LHEE			LTOE			RTHI			RKNE			RTIB			RANK			RHEE			RTOE			*39			*40			*41			*42			*43			*44			*45			*46			*47			*48			*49			*50			
		X1	Y1	Z1	X2	Y2	Z2	X3	Y3	Z3	X4	Y4	Z4	X5	Y5	Z5	X6	Y6	Z6	X7	Y7	Z7	X8	Y8	Z8	X9	Y9	Z9	X10	Y10	Z10	X11	Y11	Z11	X12	Y12	Z12	X13	Y13	Z13	X14	Y14	Z14	X15	Y15	Z15	X16	Y16	Z16	X17	Y17	Z17	X18	Y18	Z18	X19	Y19	Z19	X20	Y20	Z20	X21	Y21	Z21	X22	Y22	Z22	X23	Y23	Z23	X24	Y24	Z24	X25	Y25	Z25	X26	Y26	Z26	X27	Y27	Z27	X28	Y28	Z28	X29	Y29	Z29	X30	Y30	Z30	X31	Y31	Z31	X32	Y32	Z32	X33	Y33	Z33	X34	Y34	Z34	X35	Y35	Z35	X36	Y36	Z36	X37	Y37	Z37	X38	Y38	Z38	X39	Y39	Z39	X40	Y40	Z40	X41	Y41	Z41	X42	Y42	Z42	X43	Y43	Z43	X44	Y44	Z44	X45	Y45	Z45	X46	Y46	Z46	X47	Y47	Z47	X48	Y48	Z48	X49	Y49	Z49	X50	Y50	Z50	X51	Y51	Z51	

142	1.410	-1044.67810	126.47041	1673.63794	-913.75653	114.81172	1658.27478	-1060.12268	-2.22493	1613.76135	-931.68408	-12.84354	1602.88232	-1001.34454	-2.61537	1456.30652	-981.65393	-35.70234	1128.67566	-998.49011	108.18802	1380.16309	-1006.01642	149.30084	1205.42029	-917.91974	-73.65563	1286.38281	-1160.46655	54.44572	1409.17493	-1235.76257	72.68200	1208.64722	-1253.26404	87.28475	1097.86462	-1275.58728	151.07635	961.43286	-1234.66504	241.54939	870.49402	-1268.78320	184.64104	846.03149	-1272.04700	248.92656	782.96130	-837.67963	63.38935	1412.16797	-748.86890	23.22053	1214.10608	-740.08875	28.40951	1091.34619	-726.12891	41.62724	971.27875	-763.34314	95.32684	831.19336	-719.30286	44.22564	833.48749	-723.20032	78.35242	755.40729	-1102.68481	134.01439	965.50909	-883.35944	154.56874	977.79956	-1059.87598	-22.38398	991.87970	-893.15338	1.21438	1002.53442	-1161.49561	64.56553	648.85944	-1151.88013	73.56293	485.56195	-1134.73047	-110.64453	318.44553	-1093.24683	-227.84746	193.75090	-1039.51465	-258.32816	204.95784	-1115.25342	-155.44363	69.93563	-823.21893	116.47294	642.28558	-849.52319	125.06476	517.38007	-852.86884	88.30178	251.74025	-905.55511	84.09319	66.05287	-948.30225	43.80953	41.68831	-923.46204	239.91899	32.66948	-994.46234	19.62785	1705.53613																																	 
143	1.420	-1044.11829	134.90788	1673.93054	-913.15265	123.50968	1658.91626	-1059.12207	6.14525	1614.12109	-930.59192	-4.08785	1603.40271	-1000.16534	5.90962	1456.82166	-980.32684	-27.58118	1129.31079	-997.58655	116.64116	1380.58911	-1005.08563	157.41960	1205.73108	-916.62042	-65.06793	1287.08752	-1159.49622	62.63294	1409.68054	-1234.41541	78.48460	1208.70459	-1251.58679	90.97688	1097.68494	-1274.35059	151.71483	959.92267	-1234.54480	240.60718	867.02289	-1267.84070	182.75087	843.72632	-1272.29712	245.82173	779.60614	-836.74811	72.23740	1412.60022	-747.45941	33.96914	1214.28564	-738.18817	40.34255	1091.82422	-723.82184	55.77162	972.07721	-760.60248	112.65584	833.09735	-716.89905	61.54048	834.42651	-720.12256	97.24870	757.26208	-1101.20032	142.14632	966.32715	-882.10730	162.16142	978.15216	-1058.80701	-14.30544	992.51843	-892.08167	8.82104	1002.94464	-1160.65283	76.27408	649.48535	-1150.79358	87.73778	486.41946	-1133.50635	-94.74226	318.01343	-1092.50854	-210.68196	192.03346	-1038.43750	-241.30467	202.02493	-1116.77136	-135.54466	70.82912	-822.61066	120.73108	642.32794	-848.30658	128.06561	517.12860	-852.67902	88.85746	251.77686	-905.50720	84.18478	66.11682	-948.43689	43.86832	41.76700	-923.26202	239.99207	32.55445	-993.63403	28.17754	1705.95581																																	 
144	1.430	-1043.59656	143.28728	1674.39636	-912.60095	132.32076	1659.49060	-1058.14221	14.45528	1614.52625	-929.59503	4.59772	1603.93042	-999.07507	14.35865	1457.28271	-979.13092	-19.52048	1129.93140	-996.72205	125.05388	1380.96387	-1004.20673	165.66295	1206.08423	-915.41418	-56.61044	1287.76685	-1158.58752	70.74776	1410.25330	-1233.11743	84.55975	1208.98718	-1249.96033	94.83586	1097.55444	-1273.15808	152.20360	958.58643	-1234.39111	239.47035	863.72693	-1266.83630	180.46458	841.72644	-1272.38721	242.35124	776.40674	-835.88965	80.87168	1413.04309	-746.33978	44.49740	1214.55823	-736.42438	52.10165	1092.31934	-721.65186	69.86295	973.00720	-757.58069	130.16118	835.30182	-714.12012	78.43275	835.77283	-716.82306	115.98494	759.33636	-1099.85596	150.15848	967.02344	-880.73279	169.73434	978.28888	-1057.76465	-6.35224	993.19476	-891.07874	16.65581	1003.20203	-1160.08264	87.37856	650.10089	-1149.38550	101.82712	487.23859	-1132.47803	-78.44870	317.02325	-1092.23499	-192.76761	189.30724	-1038.02014	-223.67474	198.20432	-1117.95667	-114.96004	70.51106	-821.91534	125.06036	642.18134	-847.00220	130.84747	516.78979	-852.01947	90.03069	251.77328	-905.41779	84.17325	66.15922	-947.85284	42.60912	42.45310	-923.14374	240.01810	32.43230	-992.85645	36.65315	1706.44031																																	 
145	1.440	-1042.98621	151.61853	1674.72620	-911.95135	140.89034	1659.95947	-1057.16357	22.78890	1614.87439	-928.58569	13.19553	1604.49304	-998.06238	22.79584	1457.63464	-978.02234	-11.49665	1130.54626	-995.91827	133.42805	1381.32813	-1003.33545	173.81879	1206.37683	-914.36273	-48.17404	1288.32861	-1157.72070	78.76018	1410.81470	-1231.85510	90.04256	1209.10132	-1248.12402	98.38676	1097.66626	-1271.86096	152.49672	957.33783	-1234.16541	238.14328	860.54919	-1265.70264	178.23605	839.85480	-1272.29797	238.55673	773.32617	-835.11029	89.32561	1413.48206	-745.36053	54.57838	1214.85828	-734.79486	63.88539	1092.82666	-719.54401	83.99591	973.99103	-754.43994	147.95036	837.55396	-712.02704	95.79343	836.90338	-713.54211	134.94055	761.65033	-1098.53284	158.08528	967.66064	-879.56519	177.22018	978.34454	-1056.80969	1.56634	993.77002	-890.02820	24.20850	1003.42578	-1158.61035	99.84446	650.55664	-1147.79736	115.92033	488.07379	-1131.77478	-61.78187	315.54462	-1092.42603	-174.11005	185.71524	-1038.24658	-205.46666	193.62820	-1118.87708	-93.22355	69.56950	-821.24084	129.56627	642.12372	-845.76300	133.55710	516.66467	-851.49976	91.06269	251.85904	-905.28174	84.21651	66.12485	-947.74951	42.53143	42.57326	-923.05280	240.02504	32.32901	-992.02985	45.13616	1706.88013																																	 
